<?xml version="1.0" encoding="UTF-8" standalone="no"?>
<svg
   xmlns:dc="http://purl.org/dc/elements/1.1/"
   xmlns:cc="http://creativecommons.org/ns#"
   xmlns:rdf="http://www.w3.org/1999/02/22-rdf-syntax-ns#"
   xmlns:svg="http://www.w3.org/2000/svg"
   xmlns="http://www.w3.org/2000/svg"
   xmlns:sodipodi="http://sodipodi.sourceforge.net/DTD/sodipodi-0.dtd"
   xmlns:inkscape="http://www.inkscape.org/namespaces/inkscape"
   version="1.1"
   id="svg2"
   xml:space="preserve"
   width="282.05334"
   height="200.02667"
   viewBox="0 0 282.05334 200.02667"
   sodipodi:docname="BMBF_CMYK_Gef_L.eps"><metadata
     id="metadata8"><rdf:RDF><cc:Work
         rdf:about=""><dc:format>image/svg+xml</dc:format><dc:type
           rdf:resource="http://purl.org/dc/dcmitype/StillImage" /></cc:Work></rdf:RDF></metadata><defs
     id="defs6" /><sodipodi:namedview
     pagecolor="#ffffff"
     bordercolor="#666666"
     borderopacity="1"
     objecttolerance="10"
     gridtolerance="10"
     guidetolerance="10"
     inkscape:pageopacity="0"
     inkscape:pageshadow="2"
     inkscape:window-width="640"
     inkscape:window-height="480"
     id="namedview4" /><g
     id="g10"
     inkscape:groupmode="layer"
     inkscape:label="ink_ext_XXXXXX"
     transform="matrix(1.3333333,0,0,-1.3333333,0,200.02667)"><g
       id="g12"
       transform="scale(0.1)"><path
         d="M 2115.45,0 H 0 V 1500.2 H 2115.45 V 0"
         style="fill:#ffffff;fill-opacity:1;fill-rule:nonzero;stroke:none"
         id="path14" /><path
         d="m 745.633,623.867 c 0,-11.758 -7.703,-16.387 -13.856,-16.387 -8.125,0 -12.05,5.743 -12.05,14.278 v 49.008 h -11.473 v -53.911 c 0,-12.031 6.707,-18.183 19.043,-18.183 7.41,0 14.129,3.496 17.918,9.922 h 0.418 v -8.535 h 12.18 c -0.422,4.921 -0.704,9.804 -0.704,14.707 v 56 h -11.476 v -46.899 0"
         style="fill:#231f20;fill-opacity:1;fill-rule:nonzero;stroke:none"
         id="path16" /><path
         d="m 827.676,600.059 v 49.007 c 0,13.997 -3.781,23.098 -18.899,23.098 -9.109,0 -14.433,-2.519 -18.902,-10.5 h -0.547 v 9.102 h -12.191 c 0.422,-4.903 0.683,-9.786 0.683,-14.707 v -56 h 11.508 v 41.875 c 0,9.664 1.805,20.855 14.402,20.855 9.805,0 12.461,-6.172 12.461,-13.723 v -49.007 h 11.485 v 0"
         style="fill:#231f20;fill-opacity:1;fill-rule:nonzero;stroke:none"
         id="path18" /><path
         d="m 884.09,638.281 c 0,-14.258 0,-30.234 -12.879,-30.234 -14.414,0 -14.414,15.41 -14.414,26.035 0,18.902 1.687,28.707 14.012,28.707 12.726,0 13.281,-15.129 13.281,-24.508 z m 0,25.356 h -0.41 c -3.926,5.578 -8.817,8.527 -15.535,8.527 -22.825,0 -23.379,-20.293 -23.379,-37.945 0,-31.074 11.472,-35.547 22.824,-35.547 7.41,0 12.301,3.223 16.219,9.805 h 0.281 v -8.418 h 11.488 V 701.137 H 884.09 v -37.5 0"
         style="fill:#231f20;fill-opacity:1;fill-rule:nonzero;stroke:none"
         id="path20" /><path
         d="m 956.75,600.059 v 46.207 h 35.281 v 11.211 H 956.75 v 32.48 h 37.234 v 11.18 H 943.855 V 600.059 h 12.895 v 0"
         style="fill:#231f20;fill-opacity:1;fill-rule:nonzero;stroke:none"
         id="path22" /><path
         d="m 1029.24,608.047 c -11.9,0 -14.85,8.262 -14.85,31.23 0,19.321 6.01,23.512 14.85,23.512 8.81,0 14.84,-4.191 14.84,-23.512 0,-22.968 -2.95,-31.23 -14.84,-31.23 z m 0,-9.375 c 14.98,0 26.87,4.473 26.87,35.703 0,20.719 -2.38,37.789 -26.87,37.789 -24.51,0 -26.89,-17.07 -26.89,-37.789 0,-31.23 11.9,-35.703 26.89,-35.703 v 0"
         style="fill:#231f20;fill-opacity:1;fill-rule:nonzero;stroke:none"
         id="path24" /><path
         d="m 1085.52,670.766 h -11.48 v -70.707 h 11.48 v 41.718 c 0,9.536 3.23,19.203 15.94,19.203 2.11,0 4.08,-0.437 6.17,-0.722 v 11.906 c -11.19,0 -17.05,-1.25 -21.81,-12.043 h -0.3 v 10.645 0"
         style="fill:#231f20;fill-opacity:1;fill-rule:nonzero;stroke:none"
         id="path26" /><path
         d="m 1164.96,620.234 c 0,21.543 -35.3,21.27 -35.3,33.735 0,6.152 4.79,9.511 10.94,9.511 7.27,0 11.21,-3.914 11.06,-11.328 h 12.75 c 0.98,13.996 -9.8,20.012 -22.4,20.012 -19.88,0 -24.38,-11.906 -24.38,-19.316 0,-21.149 35.3,-21.422 35.3,-34.02 0,-7.285 -5.32,-10.781 -12.21,-10.781 -11.6,0 -11.74,9.531 -11.74,13.574 h -13.01 c -0.45,-16.23 9.1,-22.949 24.36,-22.949 13.98,0 24.63,6.016 24.63,21.562 v 0"
         style="fill:#231f20;fill-opacity:1;fill-rule:nonzero;stroke:none"
         id="path28" /><path
         d="m 1228.34,648.102 c 0.72,15.82 -7.56,24.062 -21.7,24.062 -24.5,0 -26.88,-17.07 -26.88,-37.789 0,-31.23 11.92,-35.703 26.88,-35.703 7.87,0 22.71,5.039 22.26,24.922 h -12.03 c 0.41,-12.754 -7.58,-15.547 -10.23,-15.547 -11.9,0 -14.83,8.262 -14.83,31.23 0,19.321 6.02,23.512 14.83,23.512 4.35,0 10.07,-3.086 9.82,-14.687 h 11.88 v 0"
         style="fill:#231f20;fill-opacity:1;fill-rule:nonzero;stroke:none"
         id="path30" /><path
         d="m 1297.22,600.059 v 50.132 c 0,15.957 -6.72,21.973 -18.75,21.973 -9.24,0 -14.55,-2.238 -19.18,-10.5 h -0.54 v 39.473 h -11.49 V 600.059 h 11.49 v 41.601 c 0,11.891 2.93,21.129 14.39,21.129 9.82,0 12.6,-6.172 12.6,-14.844 v -47.886 h 11.48 v 0"
         style="fill:#231f20;fill-opacity:1;fill-rule:nonzero;stroke:none"
         id="path32" /><path
         d="m 1355.19,623.867 c 0,-11.758 -7.67,-16.387 -13.87,-16.387 -8.12,0 -12.03,5.743 -12.03,14.278 v 49.008 h -11.46 v -53.911 c 0,-12.031 6.7,-18.183 19.04,-18.183 7.42,0 14.12,3.496 17.91,9.922 h 0.41 v -8.535 h 12.19 c -0.43,4.921 -0.7,9.804 -0.7,14.707 v 56 h -11.49 v -46.899 0"
         style="fill:#231f20;fill-opacity:1;fill-rule:nonzero;stroke:none"
         id="path34" /><path
         d="m 1437.22,600.059 v 49.007 c 0,13.997 -3.77,23.098 -18.88,23.098 -9.09,0 -14.42,-2.519 -18.91,-10.5 h -0.55 v 9.102 h -12.17 c 0.4,-4.903 0.69,-9.786 0.69,-14.707 v -56 h 11.48 v 41.875 c 0,9.664 1.82,20.855 14.42,20.855 9.8,0 12.46,-6.172 12.46,-13.723 v -49.007 h 11.46 v 0"
         style="fill:#231f20;fill-opacity:1;fill-rule:nonzero;stroke:none"
         id="path36" /><path
         d="m 1493.94,635.781 c 0,-9.824 0.41,-26.191 -13.42,-26.191 -8.55,0 -13.75,5.312 -13.75,27.988 0,9.391 0.43,25.063 13.46,25.063 14.4,0 13.71,-16.375 13.71,-26.86 z m -0.27,26.305 h -0.29 c -3.23,6.855 -9.09,10.078 -16.51,10.078 -5.72,0 -22.11,-2.09 -22.11,-34.586 0,-20.996 3.75,-37.519 22.95,-37.519 6.15,0 12.6,3.222 15.53,8.828 h 0.43 V 594.18 c 0,-7.266 -4.34,-12.188 -12.33,-12.188 -6.29,0 -10.64,3.653 -10.76,10.235 h -12.89 c -0.98,-13.028 9.67,-18.887 21.41,-18.887 15.53,0 26.05,3.769 26.05,19.59 v 77.836 h -11.48 v -8.68 0"
         style="fill:#231f20;fill-opacity:1;fill-rule:nonzero;stroke:none"
         id="path38" /><path
         d="m 703.215,820.766 v -8.68 h 10.906 v -62.023 h 11.484 v 62.023 h 14.286 v 8.68 h -14.286 v 12.043 c 0,5.73 2.102,10.918 14.286,10.097 v 8.231 c -1.688,0.293 -3.094,0.429 -5.477,0.429 -10.215,0 -20.293,-2.793 -20.293,-17.089 v -13.711 h -10.906 v 0"
         style="fill:#231f20;fill-opacity:1;fill-rule:nonzero;stroke:none"
         id="path40" /><path
         d="m 770.098,847.223 h -13.164 v -14.551 h 13.164 v 14.551 z m 24.636,0 h -13.171 v -14.551 h 13.171 v 14.551 z m -6.023,-73.36 c 0,-11.758 -7.695,-16.379 -13.867,-16.379 -8.106,0 -12.031,5.754 -12.031,14.27 v 49.012 h -11.485 v -53.907 c 0,-12.031 6.727,-18.191 19.043,-18.191 7.422,0 14.141,3.496 17.922,9.93 h 0.418 v -8.535 h 12.176 c -0.41,4.914 -0.68,9.804 -0.68,14.699 v 56.004 h -11.496 v -46.903 0"
         style="fill:#231f20;fill-opacity:1;fill-rule:nonzero;stroke:none"
         id="path42" /><path
         d="M 832.813,820.766 H 821.34 v -70.703 h 11.473 v 41.71 c 0,9.54 3.222,19.207 15.976,19.207 2.098,0 4.031,-0.437 6.152,-0.722 v 11.906 c -11.211,0 -17.089,-1.25 -21.847,-12.043 h -0.281 v 10.645 0"
         style="fill:#231f20;fill-opacity:1;fill-rule:nonzero;stroke:none"
         id="path44" /><path
         d="m 902.723,797.379 h 13.722 c 13.164,0 23.086,-2.785 23.086,-18.899 0,-7.41 -4.883,-17.214 -18.613,-17.214 h -18.195 v 36.113 z m 0,42.578 h 18.195 c 10.793,0 15.547,-6.875 15.547,-15.254 0,-9.816 -4.902,-15.976 -14.969,-16.105 h -18.773 v 31.359 z m 19.613,-89.894 c 11.461,0 30.359,2.519 30.359,28.417 0,13.86 -6.3,22.551 -20.703,24.231 v 0.684 c 13.016,2.949 17.344,11.355 17.344,23.964 0,1.942 -0.559,7.957 -4.063,13.438 -3.769,5.594 -8.535,10.34 -22.527,10.34 H 889.852 V 750.063 h 32.484 v 0"
         style="fill:#231f20;fill-opacity:1;fill-rule:nonzero;stroke:none"
         id="path46" /><path
         d="m 982.598,820.766 h -11.485 v -70.703 h 11.485 v 70.703 z m -12.176,18.066 h 12.887 v 12.305 h -12.887 v -12.305 0"
         style="fill:#231f20;fill-opacity:1;fill-rule:nonzero;stroke:none"
         id="path48" /><path
         d="m 1015.06,851.137 h -11.47 V 750.063 h 11.47 v 101.074 0"
         style="fill:#231f20;fill-opacity:1;fill-rule:nonzero;stroke:none"
         id="path50" /><path
         d="m 1072.32,788.285 c 0,-14.265 0,-30.242 -12.89,-30.242 -14.43,0 -14.43,15.41 -14.43,26.043 0,18.898 1.69,28.703 14,28.703 12.75,0 13.32,-15.129 13.32,-24.504 z m 0,25.352 h -0.45 c -3.91,5.578 -8.79,8.527 -15.52,8.527 -22.81,0 -23.38,-20.293 -23.38,-37.941 0,-31.082 11.48,-35.555 22.81,-35.555 7.43,0 12.32,3.223 16.27,9.805 h 0.27 v -8.41 h 11.47 v 101.074 h -11.47 v -37.5 0"
         style="fill:#231f20;fill-opacity:1;fill-rule:nonzero;stroke:none"
         id="path52" /><path
         d="m 1142.75,773.863 c 0,-11.758 -7.71,-16.379 -13.87,-16.379 -8.12,0 -12.03,5.754 -12.03,14.27 v 49.012 h -11.5 v -53.907 c 0,-12.031 6.72,-18.191 19.04,-18.191 7.42,0 14.16,3.496 17.91,9.93 h 0.45 v -8.535 h 12.15 c -0.41,4.914 -0.7,9.804 -0.7,14.699 v 56.004 h -11.45 v -46.903 0"
         style="fill:#231f20;fill-opacity:1;fill-rule:nonzero;stroke:none"
         id="path54" /><path
         d="m 1224.78,750.063 v 49.003 c 0,13.997 -3.79,23.098 -18.9,23.098 -9.11,0 -14.42,-2.519 -18.89,-10.5 h -0.59 v 9.102 h -12.17 c 0.43,-4.903 0.73,-9.786 0.73,-14.707 v -55.996 h 11.44 v 41.875 c 0,9.66 1.84,20.851 14.44,20.851 9.8,0 12.46,-6.172 12.46,-13.723 v -49.003 h 11.48 v 0"
         style="fill:#231f20;fill-opacity:1;fill-rule:nonzero;stroke:none"
         id="path56" /><path
         d="m 1281.5,785.777 c 0,-9.824 0.41,-26.191 -13.46,-26.191 -8.55,0 -13.73,5.312 -13.73,27.988 0,9.395 0.43,25.067 13.46,25.067 14.41,0 13.73,-16.375 13.73,-26.864 z m -0.29,26.309 h -0.28 c -3.22,6.855 -9.1,10.078 -16.52,10.078 -5.74,0 -22.13,-2.09 -22.13,-34.59 0,-20.996 3.79,-37.511 22.95,-37.511 6.15,0 12.6,3.222 15.55,8.82 h 0.43 v -14.688 c 0,-7.285 -4.36,-12.199 -12.31,-12.199 -6.33,0 -10.68,3.652 -10.8,10.234 h -12.89 c -0.98,-13.015 9.67,-18.894 21.45,-18.894 15.52,0 26.01,3.769 26.01,19.59 v 77.84 h -11.46 v -8.68 0"
         style="fill:#231f20;fill-opacity:1;fill-rule:nonzero;stroke:none"
         id="path58" /><path
         d="m 721.563,947.379 h 13.73 c 13.152,0 23.094,-2.785 23.094,-18.899 0,-7.41 -4.903,-17.214 -18.614,-17.214 h -18.21 v 36.113 z m 0,42.578 h 18.21 c 10.774,0 15.54,-6.875 15.54,-15.254 0,-9.816 -4.915,-15.976 -15,-16.105 h -18.75 v 31.359 z m 19.589,-89.894 c 11.504,0 30.391,2.519 30.391,28.417 0,13.86 -6.289,22.551 -20.723,24.231 v 0.684 c 13.028,2.949 17.371,11.355 17.371,23.964 0,1.942 -0.554,7.957 -4.062,13.438 -3.77,5.594 -8.535,10.343 -22.539,10.343 H 708.68 V 900.063 h 32.472 v 0"
         style="fill:#231f20;fill-opacity:1;fill-rule:nonzero;stroke:none"
         id="path60" /><path
         d="m 825.672,923.863 c 0,-11.758 -7.711,-16.379 -13.875,-16.379 -8.106,0 -12.031,5.754 -12.031,14.27 v 49.012 h -11.473 v -53.907 c 0,-12.031 6.715,-18.191 19.031,-18.191 7.41,0 14.141,3.496 17.91,9.93 h 0.438 v -8.535 h 12.16 c -0.41,4.914 -0.684,9.804 -0.684,14.699 v 56.004 h -11.476 v -46.903 0"
         style="fill:#231f20;fill-opacity:1;fill-rule:nonzero;stroke:none"
         id="path62" /><path
         d="m 907.723,900.063 v 49.003 c 0,13.997 -3.797,23.098 -18.914,23.098 -9.102,0 -14.414,-2.519 -18.895,-10.5 h -0.57 v 9.102 h -12.176 c 0.43,-4.903 0.711,-9.786 0.711,-14.707 v -55.996 h 11.465 v 41.875 c 0,9.66 1.828,20.851 14.433,20.851 9.797,0 12.453,-6.172 12.453,-13.723 v -49.003 h 11.493 v 0"
         style="fill:#231f20;fill-opacity:1;fill-rule:nonzero;stroke:none"
         id="path64" /><path
         d="m 964.129,938.285 c 0,-14.265 0,-30.242 -12.879,-30.242 -14.414,0 -14.414,15.41 -14.414,26.043 0,18.898 1.68,28.703 14.004,28.703 12.723,0 13.289,-15.129 13.289,-24.504 z m 0,25.352 h -0.41 c -3.914,5.578 -8.828,8.527 -15.535,8.527 -22.832,0 -23.387,-20.293 -23.387,-37.941 0,-31.082 11.473,-35.555 22.82,-35.555 7.422,0 12.324,3.223 16.231,9.805 h 0.281 v -8.41 h 11.484 v 101.077 h -11.484 v -37.503 0"
         style="fill:#231f20;fill-opacity:1;fill-rule:nonzero;stroke:none"
         id="path66" /><path
         d="m 1005.29,940.387 c 0.15,19.59 6.17,23.093 13.45,23.093 8.39,0 14.15,-2.5 14.15,-23.093 h -27.6 z m 39.77,-8.684 v 6.027 c 0,23.368 -5.05,34.434 -25.2,34.434 -24.501,0 -26.883,-17.07 -26.883,-37.793 0,-31.23 11.903,-35.703 26.883,-35.703 14.85,0 24.5,7.137 24.64,22.812 h -12.6 c -0.42,-7.121 -4.49,-13.437 -12.31,-13.437 -8.96,0 -14.3,3.926 -14.3,23.66 h 39.77 v 0"
         style="fill:#231f20;fill-opacity:1;fill-rule:nonzero;stroke:none"
         id="path68" /><path
         d="m 1108.36,920.23 c 0,21.543 -35.3,21.278 -35.3,33.739 0,6.152 4.77,9.511 10.92,9.511 7.29,0 11.21,-3.914 11.06,-11.328 h 12.75 c 0.98,13.996 -9.83,20.012 -22.42,20.012 -19.87,0 -24.35,-11.906 -24.35,-19.316 0,-21.145 35.28,-21.426 35.28,-34.024 0,-7.285 -5.31,-10.781 -12.16,-10.781 -11.62,0 -11.78,9.531 -11.78,13.582 h -13.02 c -0.41,-16.238 9.09,-22.957 24.37,-22.957 14,0 24.65,6.023 24.65,21.562 v 0"
         style="fill:#231f20;fill-opacity:1;fill-rule:nonzero;stroke:none"
         id="path70" /><path
         d="m 1172.44,900.063 v 47.597 c 0,2.668 0.52,9.668 3.92,12.461 3.05,2.52 4.32,2.668 8.68,2.668 9.25,0 11.21,-6.582 11.21,-13.723 v -49.003 h 11.46 v 53.761 c 0,16.66 -11.91,18.34 -19.32,18.34 -6.44,0 -12.89,-1.523 -16.79,-9.101 -2.68,6.433 -10.1,9.101 -16.53,9.101 -8.24,0 -14.27,-2.668 -17.61,-10.215 h -0.3 v 8.817 h -12.18 c 0.41,-4.903 0.7,-9.786 0.7,-14.707 v -55.996 h 11.48 v 47.597 c 0,2.668 0.55,6.875 2.66,10.383 1.68,2.656 6.45,4.746 9.94,4.746 9.24,0 11.17,-6.582 11.17,-13.723 v -49.003 h 11.51 v 0"
         style="fill:#231f20;fill-opacity:1;fill-rule:nonzero;stroke:none"
         id="path72" /><path
         d="M 1239.47,970.766 H 1228 v -70.703 h 11.47 v 70.703 z m -12.17,18.066 h 12.89 v 12.308 h -12.89 v -12.308 0"
         style="fill:#231f20;fill-opacity:1;fill-rule:nonzero;stroke:none"
         id="path74" /><path
         d="m 1310.15,900.063 v 49.003 c 0,13.997 -3.75,23.098 -18.88,23.098 -9.13,0 -14.42,-2.519 -18.91,-10.5 h -0.57 v 9.102 h -12.16 c 0.41,-4.903 0.68,-9.786 0.68,-14.707 v -55.996 h 11.48 v 41.875 c 0,9.66 1.84,20.851 14.44,20.851 9.78,0 12.46,-6.172 12.46,-13.723 v -49.003 h 11.46 v 0"
         style="fill:#231f20;fill-opacity:1;fill-rule:nonzero;stroke:none"
         id="path76" /><path
         d="m 1341.95,970.766 h -11.49 v -70.703 h 11.49 v 70.703 z m -12.19,18.066 h 12.87 v 12.308 h -12.87 v -12.308 0"
         style="fill:#231f20;fill-opacity:1;fill-rule:nonzero;stroke:none"
         id="path78" /><path
         d="m 1407.18,920.23 c 0,21.543 -35.31,21.278 -35.31,33.739 0,6.152 4.77,9.511 10.92,9.511 7.3,0 11.23,-3.914 11.05,-11.328 h 12.78 c 0.97,13.996 -9.83,20.012 -22.42,20.012 -19.87,0 -24.36,-11.906 -24.36,-19.316 0,-21.145 35.29,-21.426 35.29,-34.024 0,-7.285 -5.33,-10.781 -12.17,-10.781 -11.66,0 -11.77,9.531 -11.77,13.582 h -13.03 c -0.39,-16.238 9.1,-22.957 24.38,-22.957 13.96,0 24.64,6.023 24.64,21.562 v 0"
         style="fill:#231f20;fill-opacity:1;fill-rule:nonzero;stroke:none"
         id="path80" /><path
         d="m 1414.84,970.766 v -8.68 h 11.6 V 911.82 c 0,-8.113 4.9,-12.597 15.82,-12.597 3.79,0 7.56,0.84 11.35,1.132 v 8.801 c -2.52,-0.273 -4.34,-0.558 -5.18,-0.558 -10.48,0 -10.48,5.761 -10.48,10.226 v 43.262 h 15.37 v 8.68 h -15.37 v 18.75 l -11.51,-5.164 v -13.586 h -11.6 v 0"
         style="fill:#231f20;fill-opacity:1;fill-rule:nonzero;stroke:none"
         id="path82" /><path
         d="m 1475.27,940.387 c 0.14,19.59 6.15,23.093 13.46,23.093 8.4,0 14.12,-2.5 14.12,-23.093 h -27.58 z m 39.77,-8.684 v 6.027 c 0,23.368 -5.02,34.434 -25.2,34.434 -24.51,0 -26.88,-17.07 -26.88,-37.793 0,-31.23 11.9,-35.703 26.88,-35.703 14.82,0 24.49,7.137 24.63,22.812 h -12.6 c -0.43,-7.121 -4.45,-13.437 -12.3,-13.437 -8.99,0 -14.3,3.926 -14.3,23.66 h 39.77 v 0"
         style="fill:#231f20;fill-opacity:1;fill-rule:nonzero;stroke:none"
         id="path84" /><path
         d="m 1543.45,970.766 h -11.46 v -70.703 h 11.46 v 41.71 c 0,9.54 3.23,19.207 15.98,19.207 2.09,0 4.04,-0.437 6.15,-0.722 v 11.906 c -11.21,0 -17.07,-1.25 -21.83,-12.043 h -0.3 v 10.645 0"
         style="fill:#231f20;fill-opacity:1;fill-rule:nonzero;stroke:none"
         id="path86" /><path
         d="m 1589.31,970.766 h -11.5 v -70.703 h 11.5 v 70.703 z m -12.18,18.066 h 12.89 v 12.308 h -12.89 v -12.308 0"
         style="fill:#231f20;fill-opacity:1;fill-rule:nonzero;stroke:none"
         id="path88" /><path
         d="m 1646.95,923.863 c 0,-11.758 -7.68,-16.379 -13.85,-16.379 -8.12,0 -12.03,5.754 -12.03,14.27 v 49.012 h -11.48 v -53.907 c 0,-12.031 6.71,-18.191 19.04,-18.191 7.42,0 14.14,3.496 17.93,9.93 h 0.39 v -8.535 h 12.21 c -0.45,4.914 -0.71,9.804 -0.71,14.699 v 56.004 h -11.5 v -46.903 0"
         style="fill:#231f20;fill-opacity:1;fill-rule:nonzero;stroke:none"
         id="path90" /><path
         d="m 1725.78,900.063 v 47.597 c 0,2.668 0.56,9.668 3.92,12.461 3.09,2.52 4.34,2.668 8.68,2.668 9.25,0 11.21,-6.582 11.21,-13.723 v -49.003 h 11.5 v 53.761 c 0,16.66 -11.91,18.34 -19.34,18.34 -6.44,0 -12.87,-1.523 -16.79,-9.101 -2.68,6.433 -10.1,9.101 -16.55,9.101 -8.24,0 -14.27,-2.668 -17.61,-10.215 h -0.3 v 8.817 h -12.18 c 0.45,-4.903 0.7,-9.786 0.7,-14.707 v -55.996 h 11.48 v 47.597 c 0,2.668 0.57,6.875 2.66,10.383 1.68,2.656 6.45,4.746 9.96,4.746 9.2,0 11.19,-6.582 11.19,-13.723 v -49.003 h 11.47 v 0"
         style="fill:#231f20;fill-opacity:1;fill-rule:nonzero;stroke:none"
         id="path92" /><path
         d="m 575.82,500.059 h 44.285 V 250.039 H 575.82 v 250.02 0"
         style="fill:#f2cf04;fill-opacity:1;fill-rule:nonzero;stroke:none"
         id="path94" /><path
         d="m 575.82,750.934 h 44.285 V 500.059 H 575.82 v 250.875 0"
         style="fill:#ed1c24;fill-opacity:1;fill-rule:nonzero;stroke:none"
         id="path96" /><path
         d="m 575.82,1000.05 h 44.285 V 750.063 H 575.82 v 249.987 0"
         style="fill:#231f20;fill-opacity:1;fill-rule:nonzero;stroke:none"
         id="path98" /><path
         d="m 322.922,750.016 v 0 z m 0.008,-0.11 v 0 z m -0.02,-0.027 v 0 z m 0,0.184 v 0 z m 114.758,207.714 c 0,14.25 -10.363,25.52 -14.004,28.703 l -2.629,-0.597 c 3.879,-4.735 10.715,-12.664 10.715,-23.153 0,-20.664 -21.828,-38.613 -46.75,-38.945 0.195,-2.129 0.176,-4.004 0.176,-5.605 0,-2.95 -0.184,-5.84 -0.539,-8.653 28.273,0.508 53.031,23.496 53.031,48.25 z M 398.68,786.754 c -12.071,0 -14.684,1.269 -17.871,1.269 -2.039,0 -3.981,-0.195 -3.981,-3.097 0,-2.012 2.254,-4.942 4.297,-6.473 2.84,2.813 6.734,3.426 13.023,3.426 2.942,0 6.954,-0.574 8.723,-0.809 -0.242,-1.738 -0.598,-3.984 -0.598,-7.148 0,-1.66 0.063,-3.606 0.063,-5.656 0,-7.118 -1.047,-10.899 -3.527,-13.758 0.535,-0.332 1.961,-0.625 2.82,-0.625 4.621,0 5.801,2.363 5.801,14.355 0,3.633 0.293,6.992 0.293,7.852 6.457,-4.934 13.047,-13.723 13.047,-20.078 2.101,1.082 4.589,4.277 4.589,6.66 0,4.336 -7.234,10.781 -14.921,18.555 1.074,0.261 3.929,1.074 6.273,1.074 6.023,0 10.906,-0.996 13.738,-4.336 1.125,1.211 2.051,4.89 2.051,6.961 0,3.613 -2.07,3.496 -3.574,3.496 -6.426,0 -14.356,-1.004 -20.039,-1.942 -2.059,2.754 -15.223,20.555 -18.633,30.059 -0.988,0.332 -1.75,0.613 -3.359,0.613 -3.165,0 -3.997,-2.207 -4.805,-5.234 7.246,-8.797 14.219,-18.367 16.59,-25.164 z m -72.051,25.164 c -0.82,3.027 -1.621,5.234 -4.793,5.234 -1.629,0 -2.395,-0.281 -3.352,-0.613 -3.437,-9.504 -16.582,-27.305 -18.66,-30.059 -5.652,0.938 -13.613,1.942 -20.019,1.942 -1.512,0 -3.586,0.117 -3.586,-3.496 0,-2.071 0.918,-5.75 2.062,-6.961 2.821,3.34 7.715,4.336 13.731,4.336 2.363,0 5.195,-0.813 6.258,-1.074 -7.676,-7.774 -14.911,-14.219 -14.911,-18.555 0,-2.383 2.489,-5.578 4.602,-6.66 0,6.355 6.582,15.144 13.023,20.078 0,-0.86 0.305,-4.219 0.305,-7.852 0,-11.992 1.191,-14.355 5.809,-14.355 0.84,0 2.269,0.293 2.824,0.625 -2.492,2.859 -3.535,6.64 -3.535,13.758 0,2.05 0.078,3.996 0.078,5.656 0,3.164 -0.371,5.41 -0.617,7.148 1.757,0.235 5.781,0.809 8.722,0.809 6.289,0 10.184,-0.613 13.035,-3.426 2.043,1.531 4.297,4.461 4.297,6.473 0,2.902 -1.941,3.097 -3.992,3.097 -3.195,0 -5.789,-1.269 -17.871,-1.269 2.375,6.797 9.336,16.367 16.59,25.164 z M 276.973,962.73 c 0,10.489 6.836,18.418 10.703,23.153 l -2.598,0.597 c -3.672,-3.183 -14.015,-14.453 -14.015,-28.703 0,-24.922 25.101,-48.066 53.636,-48.261 -0.304,2.707 -0.48,5.578 -0.48,8.664 0,1.914 0.078,3.808 0.246,5.586 -25.227,0 -47.492,18.105 -47.492,38.964 z m 76.679,19.2 c 1.309,2.988 3.047,6.543 3.047,10.449 0,10.811 -8.965,15.961 -20.969,15.961 -6.16,0 -9.273,-1.99 -9.273,-3.99 0,-2 2.039,-6.397 2.82,-7.752 2.219,0.996 6.231,2.168 8.547,2.168 8.239,0 14.391,-9.25 15.828,-16.836 z m 5.899,13.828 c 7.023,-1.367 11.797,7.602 5.137,9.192 0.917,-2.95 -3.563,-5.044 -3.563,-5.044 0,0 -1.711,3.954 0.504,6.214 -4.09,2 -5.117,-0.42 -5.195,-2.94 1.605,-2.15 2.648,-4.649 3.117,-7.422 z m 22.715,-61.418 c 1.121,-0.067 2.187,-0.125 3.312,-0.125 19.746,0 39.336,12.762 39.336,29.129 0,8.73 -3.93,14.836 -8.781,21.594 -2.84,-0.469 -5.43,-0.743 -7.469,-0.743 -8.949,0 -13.801,4.805 -14.152,9.512 0,4.238 3.449,7.443 8.797,7.443 8.3,0 23.449,-7.775 38.703,-7.775 -1.496,-1.133 -3.996,-2.324 -7.004,-3.457 8.949,-8.047 14.914,-18.848 17.199,-30.383 l 23.387,-37.422 c 3.918,-6.25 12.23,-18.535 24.738,-28.125 -15.117,0 -25.164,-0.359 -37.949,19.875 l -11.985,19.18 c -0.878,-2.48 -1.98,-4.902 -3.261,-7.266 l 23.84,-38.164 c 3.964,-6.308 12.168,-18.508 24.746,-28.136 -15.137,0 -25.145,-0.36 -37.95,19.875 l -20.519,32.851 c -1.531,-1.621 -3.152,-3.223 -4.863,-4.765 l 28.957,-46.34 c 3.992,-6.348 12.168,-18.465 24.754,-28.125 -15.125,0 -25.153,-0.352 -37.957,19.894 l -28.215,45.156 c -1.875,-1.183 -3.766,-2.304 -5.719,-3.39 l 34.43,-55.125 c 3.976,-6.328 12.152,-18.469 24.746,-28.125 -15.117,0 -25.164,-0.352 -37.926,19.883 l -35.481,56.777 c -2.101,-0.82 -4.238,-1.574 -6.406,-2.266 l 40.098,-64.179 c 3.906,-6.211 12.285,-18.535 24.726,-28.106 -15.117,0 -25.156,-0.363 -37.929,19.883 l -42.723,68.379 -1.312,-0.234 c -1.161,-3.692 -1.961,-7.149 -1.961,-10.586 0,-21.485 14.09,-40.461 31.027,-55.11 -1.098,-0.457 -2.98,-0.644 -4.73,-0.644 -3.473,0 -5.743,0.207 -7.332,0.48 3.937,-8.926 12.355,-20.43 16.609,-26.387 5.539,0.997 13.605,1.786 18.879,1.786 5.515,0 6.121,-3.231 6.121,-6.133 0,-5 -2.34,-9.031 -5.055,-11.25 -1.019,2.59 -3.078,6.008 -13.281,6.008 l -1.039,-0.039 c 3,-3.332 12.328,-10.879 12.328,-16.973 0,-4.016 -4.414,-10.039 -10.246,-10.039 0.371,1.289 0.301,2.488 0.301,3.379 0,4.922 -4.352,10.683 -8.035,14.695 0.097,-1.199 0.046,-1.062 0.046,-2.469 0,-11.633 -1.043,-16.972 -8.437,-16.972 -3.621,0 -6.129,1.992 -6.981,2.578 4.786,4.422 5.051,7.91 5.051,14.422 l -0.051,5.656 c -0.011,1.484 0.02,3.457 0.243,4.891 -2.645,0.363 -3.688,0.351 -5.743,0.351 0,0 -10.507,0.832 -13.023,-4.617 -2.844,2.598 -6.977,6.277 -6.977,10.379 0,2.687 1.262,5.734 6.661,5.734 2.05,0 8.496,-1.269 13.89,-1.269 -1.445,3.222 -7.902,12.636 -13.469,19.5 -0.851,-2.645 -2.179,-5.536 -5.105,-7.871 -0.402,4.406 -2.98,18.293 -9.855,26.418 -0.801,-5.489 -1.895,-11.125 -1.895,-23 0,-28.915 6.965,-50.282 21.727,-54.375 -1.914,-3.348 -5.973,-6.356 -10.192,-6.356 -5.402,0 -8.344,6.113 -11.351,11.895 -1.551,-4.278 -5.856,-14.68 -10.204,-14.68 -4.316,0 -8.632,10.402 -10.195,14.68 -2.996,-5.782 -5.937,-11.895 -11.359,-11.895 -4.199,0 -8.27,3.008 -10.172,6.356 14.754,4.093 21.715,25.46 21.715,54.375 0,11.875 -1.082,17.511 -1.891,23 -6.867,-8.125 -9.453,-22.012 -9.855,-26.418 -2.93,2.335 -4.258,5.226 -5.098,7.871 -5.578,-6.864 -12.023,-16.278 -13.477,-19.5 5.399,0 11.836,1.269 13.887,1.269 5.399,0 6.68,-3.047 6.68,-5.734 0,-4.102 -4.152,-7.781 -6.985,-10.379 -2.527,5.449 -13.035,4.617 -13.035,4.617 -2.031,0 -3.086,0.012 -5.742,-0.351 0.223,-1.434 0.274,-3.407 0.235,-4.891 l -0.028,-5.656 c 0,-6.512 0.242,-10 5.047,-14.422 -0.859,-0.586 -3.359,-2.578 -6.984,-2.578 -7.399,0 -8.457,5.339 -8.457,16.972 0,1.407 -0.039,1.27 0.07,2.469 -3.703,-4.012 -8.047,-9.773 -8.047,-14.695 0,-0.891 -0.059,-2.09 0.293,-3.379 -5.812,0 -10.227,6.023 -10.227,10.039 0,6.094 9.336,13.641 12.317,16.973 l -1.035,0.039 c -10.196,0 -12.266,-3.418 -13.282,-6.008 -2.726,2.219 -5.066,6.25 -5.066,11.25 0,2.902 0.625,6.133 6.141,6.133 5.285,0 13.34,-0.789 18.875,-1.786 4.242,5.957 12.66,17.461 16.593,26.387 -1.582,-0.273 -3.828,-0.48 -7.324,-0.48 -1.738,0 -3.644,0.187 -4.707,0.644 16.914,14.649 31.008,33.625 31.008,55.11 0,3.437 -0.793,6.894 -1.965,10.586 l -1.289,0.234 -42.734,-68.379 c -12.785,-20.246 -22.813,-19.883 -37.93,-19.883 12.441,9.571 20.809,21.895 24.715,28.106 l 40.098,64.179 c -2.168,0.692 -4.286,1.446 -6.395,2.266 l -35.469,-56.777 c -12.793,-20.235 -22.832,-19.883 -37.941,-19.883 12.59,9.656 20.754,21.797 24.726,28.125 l 34.454,55.125 c -1.961,1.086 -3.868,2.207 -5.731,3.39 l -28.223,-45.156 c -12.793,-20.246 -22.812,-19.894 -37.937,-19.894 12.586,9.66 20.769,21.777 24.746,28.125 l 28.953,46.34 c -1.707,1.542 -3.328,3.144 -4.855,4.765 l -20.516,-32.851 c -12.805,-20.235 -22.832,-19.875 -37.949,-19.875 12.558,9.628 20.769,21.828 24.746,28.136 l 23.828,38.164 c -1.269,2.364 -2.363,4.786 -3.262,7.266 l -11.98,-19.18 c -12.785,-20.234 -22.824,-19.875 -37.93,-19.875 12.508,9.59 20.801,21.875 24.735,28.125 l 23.378,37.422 c 2.274,11.535 8.243,22.336 17.188,30.383 -2.988,1.133 -5.496,2.324 -7,3.457 15.262,0 30.387,7.765 38.699,7.765 5.371,0 8.801,-3.195 8.801,-7.433 -0.332,-4.707 -5.207,-9.512 -14.152,-9.512 -2.032,0 -4.629,0.274 -7.481,0.743 -4.844,-6.758 -8.769,-12.864 -8.769,-21.594 0,-16.367 19.589,-29.129 39.355,-29.129 1.113,0 2.176,0.058 3.293,0.125 3.914,13.262 12.246,21.965 18.902,30.469 -7.976,2.91 -16.875,10.488 -16.875,13.918 1.008,0.586 16.301,-4.219 17.883,-4.649 0.321,-0.09 0.653,-0.109 1.016,0 1.867,0.567 3.418,3.281 3.418,3.563 -1.629,0.265 -11.219,1.515 -17.785,3.898 -4.977,1.816 -7.5,5.125 -7.5,6.387 1.593,0.254 7.668,-2.93 16.574,-2.93 3.289,0 3.933,0.125 7.207,0.527 -2.305,5.469 -6.621,10.098 -11.473,10.098 -1.965,0 -6.234,-1.223 -9.808,-3 -2.489,3.859 -4.676,8.949 -4.676,11.729 0,3.27 3.242,7.12 12.39,7.12 2.563,0 4.954,-0.22 7.18,-0.63 1.778,-0.34 3.281,-0.74 4.903,-1.37 -0.137,0.21 -0.208,0.7 -0.208,1.15 0,1.27 1.145,2.61 5.45,2.61 7.531,0 15.246,-2.47 24.718,-2.47 2.45,0 4.11,0.08 5.536,0.67 -0.614,-1.88 -3.27,-4.66 -5.711,-6.9 1.492,-2.07 5.418,-7.026 5.418,-15.042 0,-12.883 -8.496,-23.508 -8.496,-36.523 0,-7.746 5.957,-14.551 7.746,-18.625 v 0"
         style="fill:#231f20;fill-opacity:1;fill-rule:nonzero;stroke:none"
         id="path100" /><path
         d="m 738.828,1296.34 c 0,7.43 -3.066,11.47 -11.199,11.47 -2.539,0 -11.633,-0.44 -11.633,-13.65 v -21.36 c 0,-13.82 4.012,-17.32 11.633,-17.32 5.781,0 9.617,1.57 11.289,2.8 v 18.9 h -11.645 v 7 h 19.692 v -30.72 c -5.16,-2.8 -11.203,-4.71 -19.336,-4.71 -13.391,0 -19.867,6.91 -19.867,24.41 v 20.73 c 0,12.6 6.476,20.66 19.867,20.66 13.648,0 20.125,-5 19.598,-18.21 h -8.399"
         style="fill:#231f20;fill-opacity:1;fill-rule:nonzero;stroke:none"
         id="path102" /><path
         d="m 762.012,1250.05 v 63.18 h 32.547 v -7 h -24.5 v -20.3 h 22.754 v -7 h -22.754 v -21.88 h 25.031 v -7 h -33.078"
         style="fill:#231f20;fill-opacity:1;fill-rule:nonzero;stroke:none"
         id="path104" /><path
         d="m 805.156,1250.05 v 63.18 h 31.317 v -7 h -23.27 v -20.3 h 22.051 v -7 h -22.051 v -28.88 h -8.047"
         style="fill:#231f20;fill-opacity:1;fill-rule:nonzero;stroke:none"
         id="path106" /><path
         d="m 844.344,1273.16 v 20.73 c 0,12.6 6.476,20.66 19.875,20.66 13.379,0 19.851,-8.06 19.851,-20.66 v -20.73 c 0,-17.5 -6.472,-24.41 -19.851,-24.41 -13.399,0 -19.875,6.91 -19.875,24.41 z m 16.371,47.51 h -8.227 v 9.09 h 8.227 z m 15.133,-47.87 v 21.36 c 0,13.21 -9.098,13.65 -11.629,13.65 -2.539,0 -11.641,-0.44 -11.641,-13.65 v -21.36 c 0,-13.82 4.024,-17.32 11.641,-17.32 7.609,0 11.629,3.5 11.629,17.32 z m 0.265,47.87 h -8.222 v 9.09 h 8.222 v -9.09"
         style="fill:#231f20;fill-opacity:1;fill-rule:nonzero;stroke:none"
         id="path108" /><path
         d="m 905.945,1279.11 v -29.06 h -8.047 v 63.18 h 21.79 c 11.199,0 15.136,-7.88 15.136,-15.75 0,-7.44 -4.109,-13.13 -11.554,-14.44 v -0.17 c 7.269,-1.14 9.894,-3.6 10.332,-16.27 0.078,-2.72 0.957,-12.61 2.179,-16.55 h -8.398 c -2.278,4.38 -1.75,12.6 -2.442,21.01 -0.613,7.69 -6.836,8.05 -9.543,8.05 z m 0,6.99 h 12.082 c 5.77,0 8.575,4.99 8.575,10.51 0,4.54 -2.274,9.62 -8.497,9.62 h -12.16 v -20.13"
         style="fill:#231f20;fill-opacity:1;fill-rule:nonzero;stroke:none"
         id="path110" /><path
         d="m 946.895,1313.23 h 19.433 c 8.047,0 13.828,-2.89 16.973,-9.62 2.539,-5.34 2.801,-17.94 2.801,-19.95 0,-13.48 -1.227,-21.27 -3.856,-25.47 -3.406,-5.42 -9.793,-8.14 -20.82,-8.14 h -14.531 z m 8.058,-56.18 h 7.606 c 11.199,0 15.312,4.2 15.312,18.9 v 12.78 c 0,12.78 -3.937,17.5 -12.332,17.5 h -10.586 v -49.18"
         style="fill:#231f20;fill-opacity:1;fill-rule:nonzero;stroke:none"
         id="path112" /><path
         d="m 1000.18,1250.05 v 63.18 h 32.55 v -7 h -24.5 v -20.3 h 22.75 v -7 h -22.75 v -21.88 h 25.03 v -7 h -33.08"
         style="fill:#231f20;fill-opacity:1;fill-rule:nonzero;stroke:none"
         id="path114" /><path
         d="m 1051.82,1279.11 v -29.06 h -8.06 v 63.18 h 21.78 c 11.21,0 15.14,-7.88 15.14,-15.75 0,-7.44 -4.1,-13.13 -11.54,-14.44 v -0.17 c 7.24,-1.14 9.88,-3.6 10.31,-16.27 0.1,-2.72 0.98,-12.61 2.21,-16.55 h -8.4 c -2.29,4.38 -1.76,12.6 -2.46,21.01 -0.61,7.69 -6.84,8.05 -9.54,8.05 z m 0,6.99 h 12.06 c 5.78,0 8.58,4.99 8.58,10.51 0,4.54 -2.27,9.62 -8.5,9.62 h -12.14 v -20.13"
         style="fill:#231f20;fill-opacity:1;fill-rule:nonzero;stroke:none"
         id="path116" /><path
         d="m 1128.02,1313.23 v -7 h -16.62 v -56.18 h -8.04 v 56.18 h -16.65 v 7 h 41.31"
         style="fill:#231f20;fill-opacity:1;fill-rule:nonzero;stroke:none"
         id="path118" /><path
         d="m 1177.73,1250.05 h -9.63 l -18.28,63.18 h 8.73 l 14.45,-55.57 h 0.16 l 14.79,55.57 h 8.24 l -18.46,-63.18"
         style="fill:#231f20;fill-opacity:1;fill-rule:nonzero;stroke:none"
         id="path120" /><path
         d="m 1204.16,1273.16 v 20.73 c 0,12.6 6.46,20.66 19.86,20.66 13.38,0 19.84,-8.06 19.84,-20.66 v -20.73 c 0,-17.5 -6.46,-24.41 -19.84,-24.41 -13.4,0 -19.86,6.91 -19.86,24.41 z m 31.48,-0.36 v 21.36 c 0,13.21 -9.08,13.65 -11.62,13.65 -2.54,0 -11.64,-0.44 -11.64,-13.65 v -21.36 c 0,-13.82 4.02,-17.32 11.64,-17.32 7.6,0 11.62,3.5 11.62,17.32"
         style="fill:#231f20;fill-opacity:1;fill-rule:nonzero;stroke:none"
         id="path122" /><path
         d="m 1265.48,1250.05 h -7.52 v 63.18 h 13.03 l 15.92,-53.03 h 0.2 l 16.09,53.03 h 13.3 v -63.18 h -8.05 v 56.18 h -0.19 l -17.66,-56.18 h -7.62 l -17.32,56.18 h -0.18 v -56.18"
         style="fill:#231f20;fill-opacity:1;fill-rule:nonzero;stroke:none"
         id="path124" /></g></g></svg>
